<?xml version="1.0" encoding="UTF-8"?>
<svg xmlns="http://www.w3.org/2000/svg" xmlns:xlink="http://www.w3.org/1999/xlink" width="24pt" height="24pt" viewBox="0 0 24 24" version="1.1">
<g id="surface1906738">
<path style="fill-rule:nonzero;fill:rgb(80%,80%,80%);fill-opacity:1;stroke-width:10;stroke-linecap:butt;stroke-linejoin:round;stroke:rgb(80%,80%,80%);stroke-opacity:1;stroke-miterlimit:10;" d="M 100.324299 14.319068 L 107.486448 21.510936 L 150.489064 21.510936 L 150.489064 35.835235 L 142.554234 35.835235 L 129.775295 145.169459 L 129.745577 145.228896 C 128.824304 152.30189 122.672583 157.680932 115.540152 157.680932 L 56.43013 157.680932 C 49.297699 157.680932 43.175696 152.30189 42.224705 145.228896 L 42.224705 145.169459 L 29.445766 35.835235 L 21.510936 35.835235 L 21.510936 21.510936 L 64.513552 21.510936 L 71.675701 14.319068 Z M 56.43013 143.326914 L 115.540152 143.326914 L 128.111061 35.835235 L 43.888939 35.835235 Z M 56.43013 143.326914 " transform="matrix(0.131442,0,0,0.131442,0.696,0.696)"/>
<path style=" stroke:none;fill-rule:nonzero;fill:rgb(80%,80%,80%);fill-opacity:1;" d="M 10.117188 2.578125 L 9.175781 3.523438 L 3.523438 3.523438 L 3.523438 5.40625 L 4.566406 5.40625 L 6.246094 19.777344 L 6.246094 19.785156 C 6.371094 20.714844 7.175781 21.421875 8.113281 21.421875 L 15.882812 21.421875 C 16.820312 21.421875 17.628906 20.714844 17.75 19.785156 L 17.753906 19.777344 L 19.433594 5.40625 L 20.476562 5.40625 L 20.476562 3.523438 L 14.824219 3.523438 L 13.882812 2.578125 Z M 6.464844 5.40625 L 17.535156 5.40625 L 15.882812 19.535156 L 8.113281 19.535156 Z M 6.464844 5.40625 "/>
</g>
</svg>
