<?xml version="1.0" encoding="UTF-8"?>
<svg xmlns="http://www.w3.org/2000/svg" xmlns:xlink="http://www.w3.org/1999/xlink" width="24pt" height="24pt" viewBox="0 0 24 24" version="1.1">
<g id="surface1215385">
<path style=" stroke:none;fill-rule:nonzero;fill:rgb(80%,80%,80%);fill-opacity:1;" d="M 12 0.03125 C 8.3125 0.03125 5.308594 3.03125 5.308594 6.71875 C 5.308594 9.777344 6.914062 13.28125 8.488281 16.066406 C 10.066406 18.847656 11.640625 20.910156 11.640625 20.910156 C 11.722656 21.023438 11.859375 21.09375 12 21.09375 C 12.140625 21.09375 12.277344 21.023438 12.359375 20.910156 C 12.359375 20.910156 13.933594 18.820312 15.511719 16.019531 C 17.085938 13.21875 18.691406 9.710938 18.691406 6.71875 C 18.691406 3.03125 15.6875 0.03125 12 0.03125 Z M 12 0.929688 C 15.207031 0.929688 17.789062 3.515625 17.789062 6.71875 C 17.789062 9.386719 16.273438 12.839844 14.730469 15.585938 C 13.46875 17.828125 12.417969 19.300781 12 19.875 C 11.578125 19.308594 10.53125 17.855469 9.269531 15.628906 C 7.726562 12.902344 6.210938 9.457031 6.210938 6.71875 C 6.210938 3.515625 8.792969 0.929688 12 0.929688 Z M 12 3.855469 C 10.160156 3.855469 8.65625 5.359375 8.65625 7.199219 C 8.65625 9.042969 10.160156 10.546875 12 10.546875 C 13.839844 10.546875 15.34375 9.042969 15.34375 7.199219 C 15.34375 5.359375 13.839844 3.855469 12 3.855469 Z M 12 4.785156 C 13.339844 4.785156 14.414062 5.859375 14.414062 7.199219 C 14.414062 8.539062 13.339844 9.613281 12 9.613281 C 10.660156 9.613281 9.585938 8.539062 9.585938 7.199219 C 9.585938 5.859375 10.660156 4.785156 12 4.785156 Z M 7.273438 16.394531 C 5.355469 16.675781 3.730469 17.121094 2.535156 17.699219 C 1.9375 17.988281 1.441406 18.3125 1.078125 18.691406 C 0.71875 19.070312 0.480469 19.539062 0.480469 20.039062 C 0.480469 20.726562 0.917969 21.3125 1.546875 21.78125 C 2.171875 22.246094 3.015625 22.625 4.050781 22.949219 C 6.113281 23.601562 8.910156 24 12 24 C 15.089844 24 17.886719 23.601562 19.949219 22.949219 C 20.984375 22.625 21.828125 22.246094 22.453125 21.78125 C 23.082031 21.3125 23.519531 20.726562 23.519531 20.039062 C 23.519531 19.542969 23.28125 19.070312 22.921875 18.691406 C 22.558594 18.3125 22.0625 17.988281 21.464844 17.699219 C 20.269531 17.121094 18.644531 16.675781 16.726562 16.394531 C 16.460938 16.355469 16.210938 16.535156 16.171875 16.800781 C 16.128906 17.0625 16.3125 17.3125 16.574219 17.355469 C 18.425781 17.625 19.988281 18.058594 21.046875 18.570312 C 21.574219 18.828125 21.984375 19.105469 22.230469 19.363281 C 22.476562 19.625 22.558594 19.839844 22.558594 20.039062 C 22.558594 20.316406 22.375 20.632812 21.886719 21 C 21.394531 21.367188 20.628906 21.730469 19.664062 22.035156 C 17.734375 22.644531 15.007812 23.039062 12 23.039062 C 8.992188 23.039062 6.265625 22.644531 4.335938 22.035156 C 3.371094 21.730469 2.605469 21.367188 2.113281 21 C 1.625 20.632812 1.441406 20.316406 1.441406 20.039062 C 1.441406 19.839844 1.523438 19.625 1.769531 19.363281 C 2.015625 19.105469 2.425781 18.828125 2.953125 18.570312 C 4.011719 18.058594 5.574219 17.625 7.425781 17.355469 C 7.6875 17.3125 7.871094 17.0625 7.828125 16.800781 C 7.789062 16.535156 7.539062 16.355469 7.273438 16.394531 Z M 7.273438 16.394531 "/>
</g>
</svg>
